# xmcd
#
# Track frame offsets: 
#        150
#        13285
#        27480
#        40930
#        56027
#        68550
#        82907
#        96507
#        109870
#        124120
#        138362
#        151595
#        165312
#        176790
#        189642
#        202310
#        214245
#        227380
#        239052
#
# Disc length: 3458 seconds
#
# Revision: 13
# Processed by: cddbd v1.5.2PL0 Copyright (c) Steve Scherf et al.
# Submitted via: ExactAudioCopyFreeDBPlugin 1.0
#
DISCID=0d0d8013
DTITLE=Various Artist - The Slide Guitar:  Bottles, Knives and Steel
DYEAR=1990
DGENRE=Blues
TTITLE0=Sylvester Weaver and Walter Beasley - Bottleneck Blues
TTITLE1=Barbecue Bob - Untitled
TTITLE2=Blind Willie Johnson - God Don't Never Change
TTITLE3=Blind Willie Johnson - Dark Was The Night
TTITLE4=Sylvester Weaver and Walter Beasley - St. Louis Blues
TTITLE5=Ruth Willis and Blind Willie McTell - Experience Blues
TTITLE6=Sylvester Weaver - Guitar Rag
TTITLE7=Tampa Red and Georgia Tom - You Can't Get That Stuff No More
TTITLE8=Charlie Patton - High Sheriff Blues
TTITLE9=Blind Boy Fuller - Homesick And Lonesome Blues
TTITLE10=Huddie Ledbetter (Leadbelly) - Packin' Trunk Blues
TTITLE11=Casey Bill Weldon - I Believe I'll Make A Change
TTITLE12=Buddy Woods and The Wampus Cats - Don't Sell It (Don't Give It 
TTITLE12=Away)
TTITLE13=Buddy Woods and The Wampus Cats - Muscat Hill Blues
TTITLE14=Robert Johnson - Traveling Riverside Blues
TTITLE15=Bukka White - Bukka's Jitterbug Swing
TTITLE16=Bukka White - Special Stream Line
TTITLE17=Sister O.M. Terrell - Swing Low, Chariot
TTITLE18=Son House - Pearline
EXTD=LABEL =CBS Records Inc.\nID =CK46218\nUPC =07464-46218-2\nCOPY
EXTD=RIGHT=1990\n*****\nPart of the CBS Records "Roots 'n' Blues" seri
EXTD=es.
EXTT0=
EXTT1=
EXTT2=
EXTT3=
EXTT4=
EXTT5=
EXTT6=
EXTT7=
EXTT8=
EXTT9=
EXTT10=
EXTT11=
EXTT12=
EXTT13=
EXTT14=
EXTT15=
EXTT16=
EXTT17=
EXTT18=
PLAYORDER=
